<svg id="Contenido" xmlns="http://www.w3.org/2000/svg" xmlns:xlink="http://www.w3.org/1999/xlink" viewBox="0 0 600 600"><defs><style>.cls-1{fill:url(#Degradado_sin_nombre_7);}.cls-2{fill:#1464a5;}.cls-3{fill:#49a5e6;}.cls-4,.cls-9{fill-rule:evenodd;}.cls-4{fill:url(#Degradado_sin_nombre_67);}.cls-5{fill:#07467f;}.cls-6{fill:#39cbcb;}.cls-7{fill:#043263;}.cls-8{fill:#fff;}.cls-9{opacity:0.5;fill:url(#Degradado_sin_nombre_50);}</style><linearGradient id="Degradado_sin_nombre_7" x1="240.52" y1="207.6" x2="427.36" y2="559" gradientUnits="userSpaceOnUse"><stop offset="0" stop-color="#192647"/><stop offset="0" stop-color="#192647" stop-opacity="0.5"/><stop offset="1" stop-color="#192647" stop-opacity="0"/></linearGradient><linearGradient id="Degradado_sin_nombre_67" x1="183.95" y1="242.34" x2="333.83" y2="322.03" gradientUnits="userSpaceOnUse"><stop offset="0.01" stop-color="#eaf9fa" stop-opacity="0.5"/><stop offset="1" stop-color="#e9f8f9" stop-opacity="0.1"/></linearGradient><linearGradient id="Degradado_sin_nombre_50" x1="97.17" y1="325.53" x2="170.96" y2="399.32" gradientUnits="userSpaceOnUse"><stop offset="0" stop-color="#fff" stop-opacity="0.5"/><stop offset="1" stop-color="#ecf7f8" stop-opacity="0.1"/></linearGradient></defs><title>GLOMO</title><path class="cls-1" d="M557.32,465.5h-8.5v-7a3,3,0,0,0-3-3h-16.5v-201a23,23,0,0,0-23-23h-305a23,23,0,0,0-23,23v64.15H142.77a10.63,10.63,0,0,0-10.64,10.63V503.09a10.63,10.63,0,0,0,10.64,10.63h88.75a10.63,10.63,0,0,0,10.63-10.63V489.5H557.32a3,3,0,0,0,3-3v-18A3,3,0,0,0,557.32,465.5Z"/><path class="cls-2" d="M151.32,181.5h305a23,23,0,0,1,23,23v201a0,0,0,0,1,0,0h-351a0,0,0,0,1,0,0v-201A23,23,0,0,1,151.32,181.5Z"/><rect class="cls-3" x="143.32" y="196.5" width="321" height="194" rx="10"/><path class="cls-4" d="M153.32,390.5h152.3l103.89-194H153.32a10,10,0,0,0-10,10v174A10,10,0,0,0,153.32,390.5Z"/><circle class="cls-5" cx="303.82" cy="273.5" r="40"/><path class="cls-6" d="M317.26,267.43h-.38v-6a12.78,12.78,0,1,0-25.56,0v6h-.1a2.42,2.42,0,0,0-2.4,2.43v9.5a15.07,15.07,0,0,0,15,15.14h0a15.07,15.07,0,0,0,15-15.14V269A1.57,1.57,0,0,0,317.26,267.43ZM307,282.5a3.09,3.09,0,1,1-6.17,0l0-1.88c0-2,1.12-3.73,2.51-3.86a2.41,2.41,0,1,1,1.13,0c1.39.13,2.51,1.9,2.51,3.86Zm5.54-15.07H295.71v-6a8.39,8.39,0,1,1,16.78,0Z"/><rect class="cls-2" x="97.32" y="415.5" width="413" height="24" rx="3"/><path class="cls-7" d="M111.82,405.5h384a3,3,0,0,1,3,3v7a0,0,0,0,1,0,0h-390a0,0,0,0,1,0,0v-7A3,3,0,0,1,111.82,405.5Z"/><path class="cls-8" d="M321.44,332.75l-6.88,13.11a.41.41,0,0,1-.72,0L307,332.75a.39.39,0,0,0-.35-.21h-3.33a.3.3,0,0,0-.26.44l10.84,20.31a.4.4,0,0,0,.7,0L325.39,333a.29.29,0,0,0-.26-.44H321.8a.41.41,0,0,0-.36.21"/><path class="cls-8" d="M325.35,350.25l6.88-13.11a.41.41,0,0,1,.72,0l6.89,13.11a.39.39,0,0,0,.35.21h3.33a.29.29,0,0,0,.26-.44l-10.84-20.31a.4.4,0,0,0-.7,0L321.4,350a.3.3,0,0,0,.26.44H325a.4.4,0,0,0,.35-.21"/><path class="cls-8" d="M273.88,350.46h-6.2a.4.4,0,0,1-.4-.4v-5.57a.4.4,0,0,1,.4-.4h6.2c3,0,4.28.84,4.28,3.19s-1.29,3.18-4.28,3.18m-6.2-14.89h6.12c2.25,0,3.4,1,3.4,2.74s-1.14,2.75-3.4,2.75h-6.12a.4.4,0,0,1-.4-.4V336a.4.4,0,0,1,.4-.4m10.65,6.64a4.51,4.51,0,0,0,2.33-4.19c0-3.27-2.54-5.48-6.13-5.48H264.22a.4.4,0,0,0-.4.4V353.1a.4.4,0,0,0,.4.4h9.86c4.93,0,7.54-2.13,7.54-6.29a5,5,0,0,0-3.29-5"/><path class="cls-8" d="M295,350.46h-6.2a.4.4,0,0,1-.4-.4v-5.57a.4.4,0,0,1,.4-.4H295c3,0,4.28.84,4.28,3.19s-1.3,3.18-4.28,3.18m-6.2-14.89H295c2.25,0,3.4,1,3.4,2.74s-1.14,2.75-3.4,2.75h-6.12a.4.4,0,0,1-.4-.4V336a.4.4,0,0,1,.4-.4m10.65,6.64a4.52,4.52,0,0,0,2.33-4.19c0-3.27-2.54-5.48-6.13-5.48H285.38a.4.4,0,0,0-.4.4V353.1a.4.4,0,0,0,.4.4h9.86c4.93,0,7.54-2.13,7.54-6.29a5,5,0,0,0-3.29-5"/><rect class="cls-2" x="82.54" y="268.65" width="109.62" height="194.36" rx="10.59"/><rect class="cls-3" x="82.54" y="293.06" width="109.62" height="145.54"/><polygon class="cls-9" points="82.7 293.15 82.7 438.51 138.54 438.6 192.15 339.61 192.15 293.06 82.7 293.15"/><path class="cls-8" d="M152.58,398.19l-5.94,11.31a.36.36,0,0,1-.63,0l-5.94-11.31a.35.35,0,0,0-.31-.18h-2.87a.26.26,0,0,0-.23.38L146,415.91a.35.35,0,0,0,.61,0L156,398.39a.26.26,0,0,0-.23-.38h-2.88a.35.35,0,0,0-.3.18"/><path class="cls-8" d="M156,413.28l6-11.31a.36.36,0,0,1,.62,0l5.95,11.31a.33.33,0,0,0,.3.19h2.87a.26.26,0,0,0,.23-.38l-9.36-17.52a.34.34,0,0,0-.61,0l-9.36,17.52a.26.26,0,0,0,.23.38h2.88a.33.33,0,0,0,.3-.19"/><path class="cls-8" d="M111.51,413.47h-5.36a.35.35,0,0,1-.34-.35v-4.8a.34.34,0,0,1,.34-.34h5.36c2.55,0,3.69.72,3.69,2.74s-1.11,2.75-3.69,2.75m-5.36-12.85h5.29c1.94,0,2.93.83,2.93,2.37s-1,2.37-2.93,2.37h-5.29a.35.35,0,0,1-.34-.35v-4a.35.35,0,0,1,.34-.35m9.2,5.73a3.89,3.89,0,0,0,2-3.62c0-2.81-2.19-4.72-5.29-4.72h-8.91a.34.34,0,0,0-.34.34v17.39a.35.35,0,0,0,.34.35h8.52c4.26,0,6.51-1.83,6.51-5.43a4.28,4.28,0,0,0-2.84-4.31"/><path class="cls-8" d="M129.78,413.47h-5.36a.35.35,0,0,1-.34-.35v-4.8a.34.34,0,0,1,.34-.34h5.36c2.55,0,3.69.72,3.69,2.74s-1.11,2.75-3.69,2.75m-5.35-12.85h5.28c1.94,0,2.94.83,2.94,2.37s-1,2.37-2.94,2.37h-5.28a.35.35,0,0,1-.35-.35v-4a.35.35,0,0,1,.35-.35m9.19,5.73a3.89,3.89,0,0,0,2-3.62c0-2.81-2.2-4.72-5.3-4.72h-8.91a.34.34,0,0,0-.34.34v17.39a.35.35,0,0,0,.34.35H130c4.26,0,6.51-1.83,6.51-5.43a4.28,4.28,0,0,0-2.84-4.31"/><circle class="cls-5" cx="137.14" cy="354.46" r="29.24"/><path class="cls-6" d="M147,350h-.28v-4.4a9.35,9.35,0,1,0-18.69,0V350h-.06a1.77,1.77,0,0,0-1.76,1.78v6.94a11,11,0,0,0,11,11.07h0a11,11,0,0,0,11-11.07v-7.57A1.15,1.15,0,0,0,147,350Zm-7.54,11a2.26,2.26,0,1,1-4.51,0v-1.38c0-1.43.81-2.73,1.83-2.82a1.76,1.76,0,1,1,.83,0c1,.09,1.83,1.39,1.83,2.82Zm4-11H131.21v-4.4a6.14,6.14,0,1,1,12.27,0Z"/></svg>