<svg width="44" height="15" xmlns="http://www.w3.org/2000/svg"><path d="M31.596 2.883l-3.77 7.013c-.082.152-.315.152-.397 0l-3.774-7.013a.22.22 0 00-.193-.114h-1.824a.16.16 0 00-.144.235l5.94 10.864c.083.15.304.15.386 0l5.941-10.864a.16.16 0 00-.144-.235H31.79a.22.22 0 00-.194.114m2.141 9.357l3.77-7.012c.083-.152.315-.152.397 0l3.774 7.013a.22.22 0 00.193.114h1.824a.16.16 0 00.145-.236L37.899 1.256a.221.221 0 00-.385 0l-5.942 10.863a.16.16 0 00.145.236h1.827a.22.22 0 00.193-.114m-28.207.114h-3.4a.216.216 0 01-.219-.213V9.164c0-.118.098-.214.219-.214h3.4c1.62 0 2.343.449 2.343 1.702 0 1.254-.707 1.703-2.343 1.703zM2.132 4.39h3.352c1.236 0 1.865.516 1.865 1.468 0 .956-.627 1.468-1.865 1.468H2.132a.216.216 0 01-.219-.213v-2.51c0-.118.098-.213.219-.213zm5.836 3.552c.787-.384 1.28-1.217 1.28-2.242 0-1.746-1.394-2.931-3.362-2.931H.234a.216.216 0 00-.219.213v10.785c0 .118.098.213.219.213h5.404c2.706 0 4.132-1.137 4.132-3.363 0-2.174-1.802-2.675-1.802-2.675zm9.157 4.413h-3.4a.216.216 0 01-.218-.213V9.164c0-.118.098-.214.219-.214h3.4c1.62 0 2.343.449 2.343 1.702 0 1.254-.708 1.703-2.344 1.703zM13.728 4.39h3.352c1.236 0 1.865.516 1.865 1.468 0 .956-.627 1.468-1.865 1.468h-3.352a.216.216 0 01-.219-.213v-2.51c0-.118.098-.213.219-.213zm5.836 3.552c.787-.384 1.279-1.217 1.279-2.242 0-1.746-1.394-2.931-3.36-2.931h-5.654a.216.216 0 00-.218.213v10.785c0 .118.098.213.218.213h5.405c2.705 0 4.132-1.137 4.132-3.363 0-2.174-1.802-2.675-1.802-2.675z" fill="#FFF" fill-rule="evenodd"/></svg>